<svg width="26" height="20" viewBox="0 0 26 20" fill="none" xmlns="http://www.w3.org/2000/svg">
<path d="M19.8076 2.58838L13.0721 7.84485L6.18262 2.58838V2.5898L6.19094 2.5969V9.95739L12.9944 15.3275L19.8076 10.1648V2.58838Z" fill="#EA4335"/>
<path d="M21.5765 1.30968L19.8076 2.58829V10.1647L25.3736 5.89134V3.31709C25.3736 3.31709 24.698 -0.359602 21.5765 1.30968Z" fill="#FBBC05"/>
<path d="M19.8076 10.165V19.9917H24.0737C24.0737 19.9917 25.2876 19.8667 25.375 18.483V5.8916L19.8076 10.165Z" fill="#34A853"/>
<path d="M6.19126 20V9.9573L6.18262 9.9502L6.19126 20Z" fill="#C5221F"/>
<path d="M6.18265 2.58985L4.42351 1.31836C1.30202 -0.350929 0.625 3.32434 0.625 3.32434V5.89859L6.18265 9.95034V2.58985Z" fill="#C5221F"/>
<path d="M6.18262 2.5896V9.95008L6.19126 9.95719V2.5967L6.18262 2.5896Z" fill="#C5221F"/>
<path d="M0.625 5.8999V18.4913C0.711015 19.8764 1.92632 20 1.92632 20H6.19236L6.18265 9.95023L0.625 5.8999Z" fill="#4285F4"/>
</svg>
