<svg width="28" height="28" viewBox="0 0 28 28" fill="none" xmlns="http://www.w3.org/2000/svg">
<rect x="8.75" y="1.75" width="17.5" height="24.5" rx="2" fill="#1066B5"/>
<rect x="8.75" y="1.75" width="17.5" height="24.5" rx="2" fill="url(#paint0_linear_501_6408)"/>
<rect x="8.75" y="4.375" width="8.75" height="8.75" fill="#32A9E7"/>
<rect x="8.75" y="13.125" width="8.75" height="8.75" fill="#167EB4"/>
<rect x="17.5" y="13.125" width="8.75" height="8.75" fill="#32A9E7"/>
<rect x="17.5" y="4.375" width="8.75" height="8.75" fill="#58D9FD"/>
<mask id="mask0_501_6408" style="mask-type:alpha" maskUnits="userSpaceOnUse" x="7" y="12" width="21" height="15">
<path d="M7 12.25H26C27.1046 12.25 28 13.1454 28 14.25V24.25C28 25.3546 27.1046 26.25 26 26.25H9C7.89543 26.25 7 25.3546 7 24.25V12.25Z" fill="url(#paint1_linear_501_6408)"/>
</mask>
<g mask="url(#mask0_501_6408)">
<path d="M28 12.25V15.75H26.25V12.25H28Z" fill="#135298"/>
<path d="M28 26.25V14L6.125 26.25H28Z" fill="url(#paint2_linear_501_6408)"/>
<path d="M7 26.25V14L28.875 26.25H7Z" fill="url(#paint3_linear_501_6408)"/>
</g>
<path d="M7 10.875C7 9.21815 8.34315 7.875 10 7.875H14.5C16.1569 7.875 17.5 9.21815 17.5 10.875V20.625C17.5 22.2819 16.1569 23.625 14.5 23.625H7V10.875Z" fill="black" fill-opacity="0.3"/>
<rect y="6.125" width="15.75" height="15.75" rx="2" fill="url(#paint4_linear_501_6408)"/>
<path d="M12.25 14.0606V13.9152C12.25 11.3944 10.4363 9.625 7.88884 9.625C5.32753 9.625 3.5 11.4065 3.5 13.9394V14.0848C3.5 16.6056 5.31369 18.375 7.875 18.375C10.4225 18.375 12.25 16.5935 12.25 14.0606ZM10.1871 14.0848C10.1871 15.7573 9.24565 16.7632 7.88884 16.7632C6.53204 16.7632 5.57674 15.733 5.57674 14.0606V13.9152C5.57674 12.2427 6.5182 11.2368 7.875 11.2368C9.21796 11.2368 10.1871 12.267 10.1871 13.9394V14.0848Z" fill="white"/>
<defs>
<linearGradient id="paint0_linear_501_6408" x1="8.75" y1="14" x2="26.25" y2="14" gradientUnits="userSpaceOnUse">
<stop stop-color="#064484"/>
<stop offset="1" stop-color="#0F65B5"/>
</linearGradient>
<linearGradient id="paint1_linear_501_6408" x1="7" y1="23.4231" x2="28" y2="23.4231" gradientUnits="userSpaceOnUse">
<stop stop-color="#1B366F"/>
<stop offset="1" stop-color="#2657B0"/>
</linearGradient>
<linearGradient id="paint2_linear_501_6408" x1="28" y1="20.125" x2="7" y2="20.125" gradientUnits="userSpaceOnUse">
<stop stop-color="#44DCFD"/>
<stop offset="0.453125" stop-color="#259ED0"/>
</linearGradient>
<linearGradient id="paint3_linear_501_6408" x1="7" y1="20.125" x2="28" y2="20.125" gradientUnits="userSpaceOnUse">
<stop stop-color="#259ED0"/>
<stop offset="1" stop-color="#44DCFD"/>
</linearGradient>
<linearGradient id="paint4_linear_501_6408" x1="0" y1="14" x2="15.75" y2="14" gradientUnits="userSpaceOnUse">
<stop stop-color="#064484"/>
<stop offset="1" stop-color="#0F65B5"/>
</linearGradient>
</defs>
</svg>
