<svg width="25" height="25" viewBox="0 0 25 25" fill="none" xmlns="http://www.w3.org/2000/svg">
<g clip-path="url(#clip0_453_886)">
<path d="M24.2663 12.9481C24.2663 12.1324 24.2001 11.3123 24.059 10.5098H12.7402V15.1307H19.222C18.953 16.6211 18.0888 17.9395 16.8233 18.7773V21.7756H20.6903C22.9611 19.6856 24.2663 16.5991 24.2663 12.9481Z" fill="#4285F4"/>
<path d="M12.7401 24.6732C15.9766 24.6732 18.7059 23.6105 20.6945 21.7763L16.8276 18.7779C15.7517 19.5099 14.3627 19.9243 12.7445 19.9243C9.61388 19.9243 6.95946 17.8123 6.00705 14.9727H2.0166V18.0636C4.05371 22.1158 8.2029 24.6732 12.7401 24.6732Z" fill="#34A853"/>
<path d="M6.00277 14.9726C5.50011 13.4822 5.50011 11.8684 6.00277 10.3781V7.28711H2.01674C0.314734 10.6779 0.314734 14.6727 2.01674 18.0635L6.00277 14.9726Z" fill="#FBBC04"/>
<path d="M12.7401 5.42154C14.4509 5.39508 16.1044 6.03884 17.3434 7.22054L20.7695 3.79449C18.6001 1.75738 15.7208 0.637409 12.7401 0.672684C8.2029 0.672684 4.05371 3.2301 2.0166 7.28668L6.00264 10.3776C6.95064 7.53361 9.60947 5.42154 12.7401 5.42154Z" fill="#EA4335"/>
</g>
<defs>
<clipPath id="clip0_453_886">
<rect width="24" height="24" fill="white" transform="translate(0.5 0.671875)"/>
</clipPath>
</defs>
</svg>
