<svg width="16" height="16" viewBox="0 0 16 16" fill="none" xmlns="http://www.w3.org/2000/svg">
<g clip-path="url(#clip0_387_604)">
<path d="M7.99992 9.99992C9.10449 9.99992 9.99992 9.10449 9.99992 7.99992C9.99992 6.89535 9.10449 5.99992 7.99992 5.99992C6.89535 5.99992 5.99992 6.89535 5.99992 7.99992C5.99992 9.10449 6.89535 9.99992 7.99992 9.99992Z" stroke="#667085" stroke-width="1.5" stroke-linecap="round" stroke-linejoin="round"/>
<path d="M12.4848 9.8181C12.4041 10.0009 12.38 10.2037 12.4157 10.4003C12.4513 10.5969 12.545 10.7783 12.6848 10.9211L12.7211 10.9575C12.8338 11.0701 12.9232 11.2038 12.9842 11.3509C13.0452 11.4981 13.0766 11.6558 13.0766 11.8151C13.0766 11.9744 13.0452 12.1321 12.9842 12.2792C12.9232 12.4264 12.8338 12.5601 12.7211 12.6726C12.6086 12.7853 12.4749 12.8748 12.3277 12.9357C12.1806 12.9967 12.0228 13.0281 11.8636 13.0281C11.7043 13.0281 11.5465 12.9967 11.3994 12.9357C11.2522 12.8748 11.1186 12.7853 11.006 12.6726L10.9696 12.6363C10.8268 12.4966 10.6454 12.4028 10.4488 12.3672C10.2522 12.3315 10.0494 12.3556 9.86659 12.4363C9.68733 12.5131 9.53445 12.6407 9.42677 12.8033C9.31909 12.9659 9.2613 13.1564 9.26052 13.3514V13.4545C9.26052 13.7759 9.13282 14.0842 8.9055 14.3116C8.67819 14.5389 8.36988 14.6666 8.0484 14.6666C7.72693 14.6666 7.41862 14.5389 7.1913 14.3116C6.96399 14.0842 6.83628 13.7759 6.83628 13.4545V13.3999C6.83159 13.1993 6.76666 13.0048 6.64993 12.8416C6.53319 12.6783 6.37006 12.554 6.18174 12.4848C5.99894 12.4041 5.79617 12.38 5.59956 12.4157C5.40296 12.4513 5.22154 12.545 5.07871 12.6848L5.04234 12.7211C4.92977 12.8338 4.79609 12.9232 4.64894 12.9842C4.50179 13.0452 4.34406 13.0766 4.18477 13.0766C4.02548 13.0766 3.86775 13.0452 3.7206 12.9842C3.57345 12.9232 3.43976 12.8338 3.32719 12.7211C3.21449 12.6086 3.12509 12.4749 3.06409 12.3277C3.00309 12.1806 2.97169 12.0228 2.97169 11.8636C2.97169 11.7043 3.00309 11.5465 3.06409 11.3994C3.12509 11.2522 3.21449 11.1186 3.32719 11.006L3.36356 10.9696C3.50327 10.8268 3.597 10.6454 3.63265 10.4488C3.6683 10.2522 3.64423 10.0494 3.56355 9.86659C3.48673 9.68733 3.35916 9.53445 3.19656 9.42677C3.03396 9.31909 2.84343 9.2613 2.6484 9.26052H2.54537C2.2239 9.26052 1.91559 9.13282 1.68827 8.9055C1.46096 8.67819 1.33325 8.36988 1.33325 8.0484C1.33325 7.72693 1.46096 7.41862 1.68827 7.1913C1.91559 6.96399 2.2239 6.83628 2.54537 6.83628H2.59992C2.80052 6.83159 2.99507 6.76666 3.15828 6.64993C3.32149 6.53319 3.44581 6.37006 3.51507 6.18174C3.59575 5.99894 3.61981 5.79617 3.58416 5.59956C3.54852 5.40296 3.45479 5.22154 3.31507 5.07871L3.27871 5.04234C3.16601 4.92977 3.0766 4.79609 3.0156 4.64894C2.9546 4.50179 2.92321 4.34406 2.92321 4.18477C2.92321 4.02548 2.9546 3.86775 3.0156 3.7206C3.0766 3.57345 3.16601 3.43976 3.27871 3.32719C3.39128 3.21449 3.52496 3.12509 3.67211 3.06409C3.81926 3.00309 3.97699 2.97169 4.13628 2.97169C4.29557 2.97169 4.4533 3.00309 4.60045 3.06409C4.7476 3.12509 4.88128 3.21449 4.99386 3.32719L5.03022 3.36356C5.17306 3.50327 5.35447 3.597 5.55108 3.63265C5.74768 3.6683 5.95045 3.64423 6.13325 3.56355H6.18174C6.36099 3.48673 6.51387 3.35916 6.62155 3.19656C6.72923 3.03396 6.78702 2.84343 6.7878 2.6484V2.54537C6.7878 2.2239 6.9155 1.91559 7.14282 1.68827C7.37014 1.46096 7.67844 1.33325 7.99992 1.33325C8.32139 1.33325 8.6297 1.46096 8.85702 1.68827C9.08433 1.91559 9.21204 2.2239 9.21204 2.54537V2.59992C9.21282 2.79494 9.27061 2.98548 9.37829 3.14808C9.48597 3.31068 9.63885 3.43824 9.8181 3.51507C10.0009 3.59575 10.2037 3.61981 10.4003 3.58416C10.5969 3.54852 10.7783 3.45479 10.9211 3.31507L10.9575 3.27871C11.0701 3.16601 11.2038 3.0766 11.3509 3.0156C11.4981 2.9546 11.6558 2.92321 11.8151 2.92321C11.9744 2.92321 12.1321 2.9546 12.2792 3.0156C12.4264 3.0766 12.5601 3.16601 12.6726 3.27871C12.7853 3.39128 12.8748 3.52496 12.9357 3.67211C12.9967 3.81926 13.0281 3.97699 13.0281 4.13628C13.0281 4.29557 12.9967 4.4533 12.9357 4.60045C12.8748 4.7476 12.7853 4.88128 12.6726 4.99386L12.6363 5.03022C12.4966 5.17306 12.4028 5.35447 12.3672 5.55108C12.3315 5.74768 12.3556 5.95045 12.4363 6.13325V6.18174C12.5131 6.36099 12.6407 6.51387 12.8033 6.62155C12.9659 6.72923 13.1564 6.78702 13.3514 6.7878H13.4545C13.7759 6.7878 14.0842 6.9155 14.3116 7.14282C14.5389 7.37014 14.6666 7.67844 14.6666 7.99992C14.6666 8.32139 14.5389 8.6297 14.3116 8.85702C14.0842 9.08433 13.7759 9.21204 13.4545 9.21204H13.3999C13.2049 9.21282 13.0144 9.27061 12.8518 9.37829C12.6892 9.48597 12.5616 9.63885 12.4848 9.8181Z" stroke="#667085" stroke-width="1.5" stroke-linecap="round" stroke-linejoin="round"/>
</g>
<defs>
<clipPath id="clip0_387_604">
<rect width="16" height="16" fill="white"/>
</clipPath>
</defs>
</svg>
