<svg width="57" height="56" viewBox="0 0 57 56" fill="none" xmlns="http://www.w3.org/2000/svg">
<g filter="url(#filter0_d_485_340)">
<rect x="2.5" y="1" width="52" height="52" rx="8" fill="white" shape-rendering="crispEdges"/>
<rect x="3" y="1.5" width="51" height="51" rx="7.5" stroke="#EAECF0" shape-rendering="crispEdges"/>
<path d="M18.3 25.8889V31.4444M18.3 25.8889V12.5556C18.3 10.7146 19.8222 9.22222 21.7 9.22222C23.5778 9.22222 25.1 10.7146 25.1 12.5556M18.3 25.8889C18.3 24.0479 16.7778 22.5556 14.9 22.5556C13.0222 22.5556 11.5 24.0479 11.5 25.8889V30.3333C11.5 39.5381 19.1112 47 28.5 47C37.8888 47 45.5 39.5381 45.5 30.3333V19.2222C45.5 17.3813 43.9778 15.8889 42.1 15.8889C40.2222 15.8889 38.7 17.3813 38.7 19.2222M25.1 12.5556V24.7778M25.1 12.5556V10.3333C25.1 8.49238 26.6222 7 28.5 7C30.3778 7 31.9 8.49238 31.9 10.3333V12.5556M31.9 12.5556V24.7778M31.9 12.5556C31.9 10.7146 33.4222 9.22222 35.3 9.22222C37.1778 9.22222 38.7 10.7146 38.7 12.5556V19.2222M38.7 19.2222V24.7778" stroke="#344054" stroke-width="2" stroke-linecap="round" stroke-linejoin="round"/>
</g>
<defs>
<filter id="filter0_d_485_340" x="0.5" y="0" width="56" height="56" filterUnits="userSpaceOnUse" color-interpolation-filters="sRGB">
<feFlood flood-opacity="0" result="BackgroundImageFix"/>
<feColorMatrix in="SourceAlpha" type="matrix" values="0 0 0 0 0 0 0 0 0 0 0 0 0 0 0 0 0 0 127 0" result="hardAlpha"/>
<feOffset dy="1"/>
<feGaussianBlur stdDeviation="1"/>
<feComposite in2="hardAlpha" operator="out"/>
<feColorMatrix type="matrix" values="0 0 0 0 0.0627451 0 0 0 0 0.0941176 0 0 0 0 0.156863 0 0 0 0.05 0"/>
<feBlend mode="normal" in2="BackgroundImageFix" result="effect1_dropShadow_485_340"/>
<feBlend mode="normal" in="SourceGraphic" in2="effect1_dropShadow_485_340" result="shape"/>
</filter>
</defs>
</svg>
